<?xml version="1.0" encoding="utf-8"?>
<!-- Generator: Adobe Illustrator 23.0.0, SVG Export Plug-In . SVG Version: 6.00 Build 0)  -->
<svg version="1.1" id="Layer_1" xmlns="http://www.w3.org/2000/svg" xmlns:xlink="http://www.w3.org/1999/xlink" x="0px" y="0px"
	 viewBox="0 0 1299.3 787.9" style="enable-background:new 0 0 1299.3 787.9;" xml:space="preserve">
<style type="text/css">
	.st0{fill:none;stroke:#000000;stroke-width:10;stroke-linecap:round;stroke-linejoin:round;stroke-miterlimit:10;}
</style>
<path class="st0" d="M355.7,414c0.3,21.8,0.5,43.6,0.8,65.4c0.1,10.2,1.5,22.4,10.7,26.8c6.5,3.1,14.5,0.5,19.8-4.3
	c5.3-4.8,8.5-11.5,11.6-17.9c11.1-23.4,22.3-46.8,33.4-70.3c-1.9,16.7-3.8,33.3-5.8,50c15.8-20.9,31.6-41.7,47.4-62.6
	c2.2,13.5-4,26.7-7.3,40s-2.3,30,9.3,37.1c10.1,6.2,23.9,1.9,32.2-6.5c8.3-8.5,12.3-20.1,16.3-31.2C558.7,342.9,604,248.9,658.7,161
	c9.9,14.1,4.8,33.3-1.1,49.5c-23.8,66-53.7,129.8-77.4,195.8c-23.7,66.1-41.4,135.4-39.6,205.6c0.2,7.2,1.1,15.4,6.8,19.7
	c5.8,4.3,16.8-0.7,14.2-7.5"/>
<path class="st0" d="M642,460.3c18.1-26.3,36.3-52.6,54.4-78.9c-3.4,19.4-6.8,38.8-10.3,58.1c11.2-10.4,22.5-20.8,33.7-31.1
	c-6,18.3-12.1,36.5-18.1,54.8c29.2-22.9,50.7-54.3,68-87.2s30.9-67.6,47.1-100.9c26.7-54.8,60.8-105.9,101.1-151.7
	c-72.3,149.8-145.9,303.9-160.3,469.7c-1,11.1-1,24.1,7.6,31.3c8,6.7,20.5,5.1,29-0.9c8.5-6,13.9-15.4,18.8-24.6
	c24.2-45.1,44.4-92.5,60.1-141.2"/>
<path class="st0" d="M1097.2,421.4C965.4,362.6,823.6,323.8,679.4,319c-144.2-4.7-290.9,25.7-416,97.5c-16,9.2-32,19.4-43.6,33.8
	c-11.6,14.4-18.1,34-12.9,51.8c4.8,16.4,18.9,28.9,34.7,35.4c15.8,6.6,33.2,8,50.3,8.5c65.6,1.9,130.8-9.1,195.4-20.6
	c173.8-30.7,347-64.8,519.5-102.1c45.8-9.9,95.3-22.3,124.4-59.1c-262-92.8-556.6-90.1-816.8,7.5"/>
</svg>
